<?xml version="1.0" standalone="no"?>
<!DOCTYPE svg PUBLIC "-//W3C//DTD SVG 20010904//EN"
 "http://www.w3.org/TR/2001/REC-SVG-20010904/DTD/svg10.dtd">
<svg version="1.0" xmlns="http://www.w3.org/2000/svg"
 width="500.000000pt" height="500.000000pt" viewBox="0 0 500.000000 500.000000"
 preserveAspectRatio="xMidYMid meet">
<metadata>
Created by potrace 1.16, written by Peter Selinger 2001-2019
</metadata>
 
<style>
  .bar {
    animation: oscillate 1s infinite ease-in-out;
    transform-origin: bottom center;
  }
 
  .bar:nth-child(1) { animation-delay: 0s; }
  .bar:nth-child(2) { animation-delay: 0.1s; }
  .bar:nth-child(3) { animation-delay: 0.2s; }
  .bar:nth-child(4) { animation-delay: 0.3s; }
  .bar:nth-child(5) { animation-delay: 0.4s; }
  .bar:nth-child(6) { animation-delay: 0.5s; }
  .bar:nth-child(7) { animation-delay: 0.6s; }
  .bar:nth-child(8) { animation-delay: 0.7s; }
  .bar:nth-child(9) { animation-delay: 0.8s; }
  .bar:nth-child(10) { animation-delay: 0.9s; }
 
 
  @keyframes oscillate {
    0%, 100% { transform: scaleY(1); }
    50% { transform: scaleY(1.1); }
  }
</style>
 
<g transform="translate(0.000000,500.000000) scale(0.100000,-0.100000)"
fill="#000000" stroke="none">
 
    <!-- 10 premières barres animées -->
    <path class="bar" d="M663 2998 c-8 -14 -16 -947 -7 -985 2 -13 11 -23 19 -23 13 0 15 66 15 504 0 301 -4 507 -9 511 -5 3 -13 0 -18 -7z"/>
    <path class="bar" d="M1395 2998 c-3 -7 -4 -236 -3 -508 3 -432 5 -495 18 -495 13 0 15 63 15 504 0 394 -3 505 -12 508 -7 3 -15 -1 -18 -9z"/>
    <path class="bar" d="M2062 2993 c-4 -10 -7 -238 -7 -508 0 -458 1 -490 18 -493 16 -3 17 26 17 507 0 489 -4 553 -28 494z"/>
    <path class="bar" d="M515 2828 c-3 -7 -4 -159 -3 -338 3 -281 5 -325 18 -325 13 0 15 44 15 334 0 259 -3 335 -12 338 -7 3 -15 -1 -18 -9z"/>
    <path class="bar" d="M1250 2501 c0 -281 2 -341 14 -341 19 0 26 88 25 299 -2 242 -11 373 -26 379 -10 3 -13 -69 -13 -337z"/>
    <path class="bar" d="M1920 2501 c0 -337 5 -382 31 -313 16 40 -1 644 -18 650 -10 3 -13 -69 -13 -337z"/>
    
    <path d="M3067 2789 c-40 -42 -52 -114 -57 -331 -2 -110 -6 -233 -8 -272 -2
    -52 0 -73 9 -73 24 0 48 41 57 97 22 139 109 244 138 167 6 -14 10 -67 10
    -117 0 -107 13 -141 54 -145 33 -4 77 33 96 79 14 33 30 38 30 9 0 -35 51 -81
    96 -87 57 -7 97 16 118 67 12 31 21 40 40 40 13 0 32 3 42 7 15 6 17 0 11 -55
    -4 -46 -2 -62 7 -62 25 0 49 41 58 97 16 100 68 193 109 193 28 0 33 -18 39
    -142 4 -73 11 -123 19 -132 32 -39 96 -6 134 69 l15 29 15 -35 c43 -104 161
    -106 227 -3 l28 45 11 -34 c16 -47 52 -78 98 -84 56 -7 96 16 117 67 13 34 20
    40 45 40 34 0 66 34 76 80 4 17 10 30 15 30 8 0 70 -91 70 -102 0 -3 -14 -8
    -32 -12 -62 -12 -86 -57 -48 -91 28 -25 85 -12 122 28 37 40 43 46 79 79 16
    14 29 32 29 40 0 7 -12 -2 -26 -20 -32 -41 -46 -40 -66 1 -9 19 -35 56 -59 83
    l-42 49 29 5 c23 4 30 11 32 33 3 24 0 27 -27 27 -35 0 -39 -5 -82 -124 -25
    -69 -36 -87 -54 -92 -35 -9 -42 0 -44 56 -1 86 -44 140 -109 140 -69 0 -116
    -45 -128 -122 -13 -86 -77 -168 -130 -168 -31 0 -74 42 -74 73 0 17 9 26 34
    35 40 15 93 71 102 107 4 16 0 35 -10 50 -13 20 -25 25 -61 25 -58 0 -110 -43
    -125 -103 -24 -98 -33 -120 -59 -149 -46 -52 -57 -37 -64 94 -7 131 -11 146
    -43 158 -51 20 -118 -35 -156 -127 -16 -41 -21 -10 -10 71 10 73 1 83 -36 43
    -18 -19 -22 -35 -22 -89 0 -73 -16 -101 -54 -96 -18 3 -22 12 -27 63 -9 98
    -41 135 -116 135 -59 0 -109 -49 -119 -117 -9 -61 -35 -122 -62 -147 -39 -35
    -48 -17 -55 107 -4 64 -10 123 -13 132 -9 23 -49 36 -78 25 -33 -12 -84 -68
    -98 -107 -7 -18 -16 -33 -20 -33 -13 0 4 63 35 125 53 106 78 185 83 264 6 96
    -6 125 -57 129 -26 2 -40 -3 -58 -22z m89 -11 c31 -37 -11 -246 -73 -360 -16
    -29 -16 -28 -17 65 0 109 22 274 40 295 16 19 34 19 50 0z m1110 -370 c30 -36
    -18 -120 -82 -144 -28 -10 -28 -10 -28 29 0 92 69 164 110 115z m-704 -3 c31
    -21 61 -105 37 -101 -39 6 -46 -40 -12 -65 20 -14 21 -18 9 -46 -28 -67 -95
    -77 -126 -18 -23 45 -17 187 10 217 19 21 61 28 82 13z m969 2 c28 -11 64
    -107 38 -103 -38 6 -46 -40 -12 -65 18 -12 20 -19 12 -42 -13 -40 -55 -68 -88
    -60 -40 10 -58 63 -53 157 4 103 36 138 103 113z m265 -223 c0 -26 -34 -53
    -62 -49 -17 2 -23 9 -23 28 0 20 7 27 35 36 40 13 50 10 50 -15z"/>  
    
 
    <path d="M2600 2789 c-82 -31 -132 -98 -132 -177 0 -73 38 -123 112 -144 l43
    -13 0 -172 c0 -94 3 -171 6 -171 4 0 18 9 33 21 l26 20 0 244 c0 196 3 253 16
    291 8 25 13 48 11 51 -3 3 -23 -11 -44 -30 l-38 -35 -3 -101 c-2 -56 -8 -101
    -12 -101 -5 0 -21 5 -37 11 -95 36 -119 161 -46 231 88 84 271 76 337 -15 42
    -58 15 -198 -46 -242 -13 -8 -40 -18 -60 -22 -21 -3 -38 -10 -38 -15 0 -15 87
    0 130 22 67 34 100 93 100 176 0 116 -77 175 -235 181 -55 1 -103 -2 -123 -10z"/>
    
    
    
    <path d="M4250 2500 c-56 -59 -53 -67 13 -29 45 26 70 58 59 75 -10 16 -17 11
    -72 -46z"/>
 
 
 
 
  <path class="bar" d="M812 2501 c2 -172 7 -271 13 -271 16 0 13 532 -3 538 -10 3 -12 -52 -10 -267z"/>
  <path class="bar" d="M1546 2763 c-3 -3 -6 -125 -6 -270 0 -227 2 -263 15 -263 13 0 15 36 15 264 0 240 -4 288 -24 269z"/>
 
  <!-- Le reste du logo inchangé -->
  <path class="bar" d="M2212 2501 c2 -172 7 -271 13 -271 16 0 13 532 -3 538 -10 3 -12 -52 -10 -267z"/>
 
</g>
</svg>